<?xml version="1.0" standalone="no"?>
<svg xmlns:xlink="http://www.w3.org/1999/xlink" id="wave" style="transform:rotate(0deg); transition: 0.3s" viewBox="0 0 1440 170" version="1.1" xmlns="http://www.w3.org/2000/svg"><defs><linearGradient id="sw-gradient-0" x1="0" x2="0" y1="1" y2="0"><stop stop-color="rgba(41, 40, 40, 1)" offset="0%"/><stop stop-color="rgba(41, 40, 40, 1)" offset="100%"/></linearGradient></defs><path style="transform:translate(0, 0px); opacity:1" fill="url(#sw-gradient-0)" d="M0,85L80,93.5C160,102,320,119,480,116.2C640,113,800,91,960,68C1120,45,1280,23,1440,34C1600,45,1760,91,1920,107.7C2080,125,2240,113,2400,107.7C2560,102,2720,102,2880,90.7C3040,79,3200,57,3360,56.7C3520,57,3680,79,3840,96.3C4000,113,4160,125,4320,116.2C4480,108,4640,79,4800,59.5C4960,40,5120,28,5280,36.8C5440,45,5600,74,5760,76.5C5920,79,6080,57,6240,53.8C6400,51,6560,68,6720,82.2C6880,96,7040,108,7200,107.7C7360,108,7520,96,7680,82.2C7840,68,8000,51,8160,59.5C8320,68,8480,102,8640,121.8C8800,142,8960,147,9120,141.7C9280,136,9440,119,9600,113.3C9760,108,9920,113,10080,116.2C10240,119,10400,119,10560,121.8C10720,125,10880,130,11040,133.2C11200,136,11360,136,11440,136L11520,136L11520,170L11440,170C11360,170,11200,170,11040,170C10880,170,10720,170,10560,170C10400,170,10240,170,10080,170C9920,170,9760,170,9600,170C9440,170,9280,170,9120,170C8960,170,8800,170,8640,170C8480,170,8320,170,8160,170C8000,170,7840,170,7680,170C7520,170,7360,170,7200,170C7040,170,6880,170,6720,170C6560,170,6400,170,6240,170C6080,170,5920,170,5760,170C5600,170,5440,170,5280,170C5120,170,4960,170,4800,170C4640,170,4480,170,4320,170C4160,170,4000,170,3840,170C3680,170,3520,170,3360,170C3200,170,3040,170,2880,170C2720,170,2560,170,2400,170C2240,170,2080,170,1920,170C1760,170,1600,170,1440,170C1280,170,1120,170,960,170C800,170,640,170,480,170C320,170,160,170,80,170L0,170Z"/></svg>